<?xml version="1.0" encoding="UTF-8" standalone="no"?>
<!DOCTYPE svg PUBLIC "-//W3C//DTD SVG 1.1//EN" "http://www.w3.org/Graphics/SVG/1.1/DTD/svg11.dtd">
<svg width="100%" height="100%" viewBox="0 0 1015 1264" version="1.1" xmlns="http://www.w3.org/2000/svg" xmlns:xlink="http://www.w3.org/1999/xlink" xml:space="preserve" xmlns:serif="http://www.serif.com/" style="fill-rule:evenodd;clip-rule:evenodd;stroke-linecap:round;stroke-linejoin:round;stroke-miterlimit:1.5;">
    <g transform="matrix(1,0,0,1,-274.045,-682.126)">
        <g transform="matrix(1,0,0,1,-402.328,-358.097)">
            <g>
                <g transform="matrix(1.08044,0,0,1.08044,-477.903,-98.4344)">
                    <g>
                        <g transform="matrix(1,0,0,1,302.7,93.0817)">
                            <path d="M1263.16,1906.2C1262.1,1925.64 1256.92,1944.91 1247.89,1962.18C1243.4,1970.76 1237.9,1978.58 1231.89,1986.15C1221.54,1999.22 1209.48,2010.79 1196.15,2020.81C1188.16,2026.81 1179.76,2032.25 1171.06,2037.17C1159.62,2043.62 1147.68,2049.16 1135.42,2053.84C1118.09,2060.46 1100.12,2065.38 1081.9,2068.81C1073.01,2070.48 1064.05,2071.78 1055.06,2072.76C1050.7,2073.24 1046.31,2073.46 1041.95,2073.95C1039.61,2074.22 1037.28,2074.65 1034.94,2074.95C1029.98,2075.56 1025.01,2076 1020.02,2076.25C1003.42,2077.09 986.738,2075.9 970.398,2072.88C957.213,2071.58 944.101,2069.28 931.341,2065.69C923.409,2063.46 915.614,2060.73 908.059,2057.44C903.114,2055.28 898.272,2052.89 893.568,2050.25C880.132,2042.71 867.876,2033.13 857.395,2021.83C846.808,2010.42 838.111,1997.36 831.209,1983.42C829.029,1979.02 827.026,1974.53 825.187,1969.98C822.842,1964.17 820.766,1958.26 818.928,1952.27C816.627,1944.77 814.701,1937.16 813.094,1929.48C811.036,1919.66 809.5,1909.72 808.381,1899.75C806.879,1886.36 806.128,1872.89 805.924,1859.43C805.651,1841.42 806.37,1823.4 807.642,1805.44" style="fill:none;stroke:black;stroke-width:15.43px;"/>
                        </g>
                        <g transform="matrix(1,0,0,1,647.218,-90.0464)">
                            <path d="M759.164,2113.71C764.281,2113.71 769.407,2114.24 774.403,2115.35C776.361,2115.78 778.298,2116.31 780.204,2116.94C789.834,2120.11 799.8,2126.15 804.142,2135.73C805.617,2138.98 806.323,2142.56 806.116,2146.13C805.908,2149.72 804.794,2153.21 803.04,2156.33C800.701,2160.51 797.284,2164.01 793.477,2166.86C786.901,2171.79 779.058,2174.95 771.057,2176.67C765.889,2177.78 760.592,2178.3 755.307,2178.27C750.093,2178.23 744.872,2177.66 739.794,2176.47C737.848,2176.01 735.923,2175.46 734.032,2174.82C724.523,2171.56 714.694,2165.48 710.514,2155.93C709.124,2152.75 708.472,2149.27 708.685,2145.8C708.903,2142.25 710.016,2138.8 711.756,2135.7C714.08,2131.57 717.465,2128.1 721.234,2125.26C727.757,2120.34 735.535,2117.16 743.476,2115.41C748.621,2114.27 753.896,2113.71 759.164,2113.71Z" style="fill:none;stroke:black;stroke-width:7.71px;"/>
                        </g>
                    </g>
                </g>
            </g>
        </g>
        <g id="Ebene1" transform="matrix(1,0,0,1,-184.724,9.15025)">
            <g>
                <path id="tail" d="M976.144,1329.75C976.144,1329.75 1029.37,1212.96 1170.56,1132.79C1284.18,1068.27 1471.8,1098.8 1455.31,1155.43C1395.49,1206.94 1383.33,1160.17 1302.85,1254.48C1222.14,1372.27 1302.7,1479.7 1195.51,1592.17C1088.32,1704.64 959.981,1675.76 959.981,1675.76C959.981,1675.76 1057.38,1660.15 1038.3,1526.07C1023.51,1422.1 976.144,1329.75 976.144,1329.75Z" style="fill:none;stroke:black;stroke-width:25px;"/>
                <path id="tail_acc" d="M1261.07,1397.02C1261.07,1397.02 1029.37,1212.96 1170.56,1132.79C1284.18,1068.27 1430.17,1103.11 1451.8,1123.83C1500.59,1170.58 1335.23,1214.21 1302.85,1254.48C1271.83,1293.07 1261.07,1397.02 1261.07,1397.02Z" style="fill:none;stroke:black;stroke-width:25px;"/>
                <path id="body" d="M623.566,1239.95C623.566,1239.95 467.623,1480.11 520.741,1613.08C545.852,1675.94 640.359,1688.08 778.268,1689C913.041,1689.91 1001.65,1683.08 1027.51,1622.63C1084.1,1490.39 929.415,1241.23 929.415,1241.23C929.415,1241.23 867.607,1269.16 776.54,1269.13C685.89,1269.09 623.566,1239.95 623.566,1239.95Z" style="fill:none;stroke:black;stroke-width:25px;"/>
                <path id="fur" d="M623.566,1239.95C623.566,1239.95 641.548,1386.26 667.905,1386.67C694.262,1387.07 715.82,1363.69 733.189,1359.09C745.733,1355.78 765.628,1356.26 767.655,1358.28C769.683,1356.26 805.116,1364.69 817.66,1368.01C835.029,1372.61 858.615,1383.83 884.971,1383.42C911.328,1383.02 929.415,1241.23 929.415,1241.23C816.073,1284.39 720.689,1272.49 623.566,1239.95Z" style="fill:none;stroke:black;stroke-width:25px;"/>
                <g id="rfoot">
                    <path d="M638.294,1660.99C646.88,1655.72 659.714,1652.18 678.575,1651.89C701.842,1651.54 716.993,1656.71 726.764,1664.27C751.253,1683.21 741.959,1717.21 741.959,1717.21L628.173,1715.28C628.173,1715.28 609.749,1678.54 638.294,1660.99Z" style="fill:none;"/>
                    <path id="rfoot1" serif:id="rfoot" d="M608.386,1459.82L638.294,1660.99M726.764,1664.27L728.991,1559.64L726.764,1664.27ZM628.173,1715.28L741.959,1717.21C741.959,1717.21 760.15,1650.67 678.575,1651.89C597,1653.12 628.173,1715.28 628.173,1715.28" style="fill:none;stroke:black;stroke-width:16.67px;"/>
                </g>
                <g id="lfoot">
                    <path d="M910.131,1661.4C938.677,1678.94 920.253,1715.68 920.253,1715.68L806.467,1717.61C806.467,1717.61 797.173,1683.62 821.662,1664.67C831.433,1657.11 846.584,1651.95 869.851,1652.3C888.712,1652.58 901.546,1656.12 910.131,1661.4Z" style="fill:none;"/>
                    <g id="lfoot1" serif:id="lfoot" transform="matrix(-1,0,0,1,1548.43,0.405489)">
                        <path d="M608.386,1459.82L638.294,1660.99M726.764,1664.27L728.991,1559.64L726.764,1664.27ZM628.173,1715.28L741.959,1717.21C741.959,1717.21 760.15,1650.67 678.575,1651.89C597,1653.12 628.173,1715.28 628.173,1715.28" style="fill:none;stroke:black;stroke-width:16.67px;"/>
                    </g>
                </g>
                <g id="head">
                    <g id="rear" transform="matrix(1,0,0,1,-1.53223,-5.50653)">
                        <path d="M594.475,934.512L559.077,971.354C534.077,947.334 520.51,910.584 517.991,870.032C514.475,813.42 532.403,749.804 563.43,709.515C571.066,699.6 584.76,696.676 595.779,702.609C637.991,725.335 675.979,785.331 699.494,855.453L651.053,871.697C635.975,826.733 615.544,785.599 590.62,761.768C574.855,792.2 566.779,831.354 568.985,866.865C570.65,893.677 577.946,918.631 594.475,934.512Z" style="fill:none;stroke:black;stroke-width:25px;"/>
                    </g>
                    <g id="lear" transform="matrix(0.734763,0,0,1.01672,245.294,-35.1958)">
                        <g transform="matrix(1,0,0,1,177.421,-40.6855)">
                            <path d="M743.188,745.406L889.876,805.571L784.554,885.173L743.188,745.406Z" style="fill:none;stroke:black;stroke-width:18.79px;"/>
                        </g>
                        <g id="lear1" serif:id="lear" transform="matrix(-1.26887,0,0,1.26887,1725.73,-235.174)">
                            <path d="M554.878,964.836L598.674,941.031C591.673,934.304 586.396,920.163 581.111,904.001C576.097,888.668 571.805,871.606 568.334,855.835C577.086,860.052 586.247,863.552 595.408,865.646C602.659,867.303 610.538,866.708 617.158,864.002C623.778,861.297 628.544,856.724 630.316,851.379C633.037,843.172 636.213,834.258 639.509,825.356C649.55,848.324 659.427,871.73 663.489,883.843L716.747,874.515C706.904,845.16 663.864,751.128 663.864,751.128C660.109,742.934 649.442,737.442 637.499,737.554C625.556,737.665 615.089,743.355 611.628,751.616C611.628,751.616 597.89,784.423 585.921,816.895C567.104,805.717 552.991,791.018 552.991,791.018C545.686,783.792 532.582,781.005 521.025,784.22C509.468,787.434 502.331,795.851 503.614,804.752C503.614,804.752 512.551,866.538 527.779,913.109C535.247,935.946 544.986,955.332 554.878,964.836Z" style="fill:none;stroke:black;stroke-width:14.81px;"/>
                        </g>
                    </g>
                    <path id="head1" serif:id="head" d="M776.02,839.865C843.654,838.074 924.356,877.424 975.853,954.467C1049.7,1064.94 1084.53,1102.88 1084.53,1102.88C1084.53,1102.88 971.717,1273.4 752.347,1266.1C546.845,1259.26 471.269,1103.46 471.269,1103.46C471.269,1103.46 517.9,1052.78 570.208,970.059C622.516,887.339 662.592,842.869 776.02,839.865Z" style="fill:none;stroke:black;stroke-width:25px;"/>
                    <g id="eyes">
                        <g transform="matrix(1.30547,0,0,1.30547,345.746,-287.165)">
                            <path d="M261.541,1004.95C275.461,1004.95 286.762,1016.25 286.762,1030.17C286.762,1044.09 275.461,1055.39 261.541,1055.39C247.621,1055.39 236.32,1044.09 236.32,1030.17C236.32,1016.25 247.621,1004.95 261.541,1004.95ZM261.541,1014.52C252.906,1014.52 245.895,1021.54 245.895,1030.17C245.895,1038.81 252.906,1045.82 261.541,1045.82C270.176,1045.82 277.187,1038.81 277.187,1030.17C277.187,1021.54 270.176,1014.52 261.541,1014.52Z"/>
                        </g>
                        <g transform="matrix(1.30547,0,0,1.30547,522.01,-287.098)">
                            <path d="M261.541,1004.95C275.461,1004.95 286.762,1016.25 286.762,1030.17C286.762,1044.09 275.461,1055.39 261.541,1055.39C247.621,1055.39 236.32,1044.09 236.32,1030.17C236.32,1016.25 247.621,1004.95 261.541,1004.95ZM261.541,1014.52C252.906,1014.52 245.895,1021.54 245.895,1030.17C245.895,1038.81 252.906,1045.82 261.541,1045.82C270.176,1045.82 277.187,1038.81 277.187,1030.17C277.187,1021.54 270.176,1014.52 261.541,1014.52Z"/>
                        </g>
                    </g>
                    <path id="lcheeck" d="M477.153,1103.61C477.153,1103.61 559.565,1091.17 644.313,1131.72C729.06,1172.27 771.297,1256.98 771.297,1256.98C771.297,1256.98 709.064,1280.12 609.719,1233.49C510.374,1186.86 477.153,1103.61 477.153,1103.61" style="fill:none;stroke:black;stroke-width:25px;"/>
                    <g id="rcheek" transform="matrix(-1,0,0,1,1552.33,-0.0802777)">
                        <path d="M477.153,1103.61C477.153,1103.61 565.332,1096.48 652.423,1131.72C758.661,1174.7 781.028,1257.06 781.028,1257.06C781.028,1257.06 714.741,1279.31 609.719,1233.49C509.131,1189.6 477.153,1103.61 477.153,1103.61" style="fill:none;stroke:black;stroke-width:25px;"/>
                    </g>
                    <g id="nose" transform="matrix(1.05568,0,0,-1.05568,222.145,2572.85)">
                        <path d="M497,1268.99C500.959,1262.09 508.202,1257.73 516.151,1257.46C524.1,1257.18 531.625,1261.04 536.045,1267.65C542.393,1277.15 549.254,1287.41 555.137,1296.21C559.062,1302.08 560.071,1309.42 557.875,1316.13C555.679,1322.85 550.521,1328.17 543.886,1330.59C534.773,1333.93 524.617,1336.67 515.743,1336.67C507.748,1336.67 496.971,1335.03 486.334,1332.9C479.193,1331.48 473.57,1325.97 472.011,1318.86C470.452,1311.75 473.251,1304.38 479.143,1300.11C479.143,1300.11 479.143,1300.11 479.143,1300.11C479.143,1300.11 488.024,1284.63 497,1268.99Z" style="fill:none;stroke:black;stroke-width:23.68px;"/>
                    </g>
                </g>
            </g>
        </g>
    </g>
</svg>
