<?xml version="1.0" encoding="UTF-8" standalone="no"?>
<!DOCTYPE svg PUBLIC "-//W3C//DTD SVG 1.1//EN" "http://www.w3.org/Graphics/SVG/1.1/DTD/svg11.dtd">
<svg width="100%" height="100%" viewBox="0 0 1075 1284" version="1.1" xmlns="http://www.w3.org/2000/svg" xmlns:xlink="http://www.w3.org/1999/xlink" xml:space="preserve" xmlns:serif="http://www.serif.com/" style="fill-rule:evenodd;clip-rule:evenodd;stroke-linecap:round;stroke-linejoin:round;stroke-miterlimit:1.5;">
    <g transform="matrix(1,0,0,1,-214.252,-682.126)">
        <g transform="matrix(1,0,0,1,-184.724,9.15025)">
            <g id="Ebene1">
                <g transform="matrix(1,0,0,1,-222.69,-344.725)">
                    <g>
                        <g transform="matrix(1.08044,0,0,1.08044,-477.903,-98.4344)">
                            <g>
                                <g transform="matrix(1,0,0,1,302.7,93.0817)">
                                    <path d="M993.243,1737.1C1020,1736.78 1046.84,1739.28 1072.99,1744.97C1099.73,1750.79 1125.87,1760.01 1149.86,1773.24C1166.13,1782.21 1181.46,1793.07 1194.74,1806.1C1208,1819.1 1219.26,1834.33 1226.74,1851.38C1234.08,1868.1 1237.57,1886.43 1236.56,1904.69C1235.53,1923.44 1229.84,1941.7 1220.81,1958.11C1211.3,1975.4 1198.28,1990.61 1183.51,2003.63C1168.38,2016.97 1151.34,2028.06 1133.4,2037.24C1108.14,2050.16 1081,2059.34 1053.25,2065.16C1026.41,2070.79 998.917,2073.31 971.504,2072.9C945.356,2072.51 919.196,2069.45 893.749,2063.37C871.333,2058.01 849.404,2050.31 828.848,2039.85C823.504,2037.13 818.257,2034.22 813.129,2031.11C783.977,2013.43 757.47,1988.6 743.884,1956.79C736.774,1940.14 733.596,1921.94 734.938,1903.88C736.319,1885.28 742.392,1867.26 751.678,1851.15C760.215,1836.33 771.37,1823.11 783.885,1811.5C802.715,1794.04 824.675,1780.08 847.87,1769.17C869.375,1759.06 892.064,1751.49 915.229,1746.22C940.804,1740.41 967.023,1737.4 993.243,1737.1Z" style="fill:rgb(90,90,90);stroke:black;stroke-width:15.43px;"/>
                                </g>
                                <g transform="matrix(1,0,0,1,647.218,-90.0464)">
                                    <path d="M760.081,2113.2C765.175,2113.22 770.276,2113.76 775.243,2114.89C777.19,2115.34 779.117,2115.88 781.011,2116.51C790.619,2119.74 800.501,2125.85 804.796,2135.43C806.261,2138.7 806.959,2142.29 806.751,2145.86C806.542,2149.45 805.435,2152.95 803.688,2156.09C801.364,2160.25 797.967,2163.76 794.174,2166.62C787.639,2171.54 779.835,2174.7 771.869,2176.41C766.725,2177.51 761.453,2178.03 756.193,2177.98C751,2177.94 745.801,2177.35 740.747,2176.14C738.809,2175.68 736.892,2175.12 735.009,2174.47C725.501,2171.18 715.731,2165.02 711.587,2155.44C710.203,2152.24 709.557,2148.75 709.772,2145.26C709.992,2141.7 711.102,2138.23 712.842,2135.12C715.158,2130.98 718.532,2127.5 722.298,2124.66C728.792,2119.75 736.544,2116.58 744.463,2114.84C749.585,2113.72 754.838,2113.18 760.081,2113.2Z" style="fill:rgb(240,240,240);stroke:black;stroke-width:7.71px;"/>
                                </g>
                            </g>
                        </g>
                    </g>
                </g>
                <g>
                    <path id="tail" d="M976.144,1329.75C976.144,1329.75 1029.37,1212.96 1170.56,1132.79C1284.18,1068.27 1471.8,1098.8 1455.31,1155.43C1395.49,1206.94 1383.33,1160.17 1302.85,1254.48C1222.14,1372.27 1302.7,1479.7 1195.51,1592.17C1088.32,1704.64 959.981,1675.76 959.981,1675.76C959.981,1675.76 1057.38,1660.15 1038.3,1526.07C1023.51,1422.1 976.144,1329.75 976.144,1329.75Z" style="fill:rgb(224,133,94);stroke:black;stroke-width:25px;"/>
                    <path id="tail_acc" d="M1261.07,1397.02C1261.07,1397.02 1029.37,1212.96 1170.56,1132.79C1284.18,1068.27 1430.17,1103.11 1451.8,1123.83C1500.59,1170.58 1335.23,1214.21 1302.85,1254.48C1271.83,1293.07 1261.07,1397.02 1261.07,1397.02Z" style="fill:rgb(240,240,240);stroke:black;stroke-width:25px;"/>
                    <path id="body" d="M623.566,1239.95C623.566,1239.95 467.623,1480.11 520.741,1613.08C545.852,1675.94 640.359,1688.08 778.268,1689C913.041,1689.91 1001.65,1683.08 1027.51,1622.63C1084.1,1490.39 929.415,1241.23 929.415,1241.23C929.415,1241.23 867.607,1269.16 776.54,1269.13C685.89,1269.09 623.566,1239.95 623.566,1239.95Z" style="fill:rgb(224,133,94);stroke:black;stroke-width:25px;"/>
                    <path id="fur" d="M623.566,1239.95C623.566,1239.95 641.548,1386.26 667.905,1386.67C694.262,1387.07 715.82,1363.69 733.189,1359.09C745.733,1355.78 765.628,1356.26 767.655,1358.28C769.683,1356.26 805.116,1364.69 817.66,1368.01C835.029,1372.61 858.615,1383.83 884.971,1383.42C911.328,1383.02 929.415,1241.23 929.415,1241.23C816.073,1284.39 720.689,1272.49 623.566,1239.95Z" style="fill:rgb(240,240,240);stroke:black;stroke-width:25px;"/>
                    <g id="rfoot">
                        <path d="M638.294,1660.99C646.88,1655.72 659.714,1652.18 678.575,1651.89C701.842,1651.54 716.993,1656.71 726.764,1664.27C751.253,1683.21 741.959,1717.21 741.959,1717.21L628.173,1715.28C628.173,1715.28 609.749,1678.54 638.294,1660.99Z" style="fill:rgb(240,240,240);"/>
                        <path id="rfoot1" serif:id="rfoot" d="M608.386,1459.82L638.294,1660.99M726.764,1664.27L728.991,1559.64L726.764,1664.27ZM628.173,1715.28L741.959,1717.21C741.959,1717.21 760.15,1650.67 678.575,1651.89C597,1653.12 628.173,1715.28 628.173,1715.28" style="fill:none;stroke:black;stroke-width:16.67px;"/>
                    </g>
                    <g id="lfoot">
                        <path d="M910.131,1661.4C938.677,1678.94 920.253,1715.68 920.253,1715.68L806.467,1717.61C806.467,1717.61 797.173,1683.62 821.662,1664.67C831.433,1657.11 846.584,1651.95 869.851,1652.3C888.712,1652.58 901.546,1656.12 910.131,1661.4Z" style="fill:rgb(240,240,240);"/>
                        <g id="lfoot1" serif:id="lfoot" transform="matrix(-1,0,0,1,1548.43,0.405489)">
                            <path d="M608.386,1459.82L638.294,1660.99M726.764,1664.27L728.991,1559.64L726.764,1664.27ZM628.173,1715.28L741.959,1717.21C741.959,1717.21 760.15,1650.67 678.575,1651.89C597,1653.12 628.173,1715.28 628.173,1715.28" style="fill:none;stroke:black;stroke-width:16.67px;"/>
                        </g>
                    </g>
                    <g id="head">
                        <g id="rear" transform="matrix(1,0,0,1,-1.53223,-5.50653)">
                            <path d="M594.475,934.512L559.077,971.354C534.077,947.334 520.51,910.584 517.991,870.032C514.475,813.42 532.403,749.804 563.43,709.515C571.066,699.6 584.76,696.676 595.779,702.609C637.991,725.335 675.979,785.331 699.494,855.453L651.053,871.697C635.975,826.733 615.544,785.599 590.62,761.768C574.855,792.2 566.779,831.354 568.985,866.865C570.65,893.677 577.946,918.631 594.475,934.512Z" style="fill:rgb(224,133,94);stroke:black;stroke-width:25px;"/>
                        </g>
                        <g id="lear" transform="matrix(0.734763,0,0,1.01672,245.294,-35.1958)">
                            <g transform="matrix(1,0,0,1,177.421,-40.6855)">
                                <path d="M743.188,745.406L889.876,805.571L784.554,885.173L743.188,745.406Z" style="fill:rgb(90,90,90);stroke:black;stroke-width:18.79px;"/>
                            </g>
                            <g id="lear1" serif:id="lear" transform="matrix(-1.26887,0,0,1.26887,1725.73,-235.174)">
                                <path d="M554.878,964.836L598.674,941.031C591.673,934.304 586.396,920.163 581.111,904.001C576.097,888.668 571.805,871.606 568.334,855.835C577.086,860.052 586.247,863.552 595.408,865.646C602.659,867.303 610.538,866.708 617.158,864.002C623.778,861.297 628.544,856.724 630.316,851.379C633.037,843.172 636.213,834.258 639.509,825.356C649.55,848.324 659.427,871.73 663.489,883.843L716.747,874.515C706.904,845.16 663.864,751.128 663.864,751.128C660.109,742.934 649.442,737.442 637.499,737.554C625.556,737.665 615.089,743.355 611.628,751.616C611.628,751.616 597.89,784.423 585.921,816.895C567.104,805.717 552.991,791.018 552.991,791.018C545.686,783.792 532.582,781.005 521.025,784.22C509.468,787.434 502.331,795.851 503.614,804.752C503.614,804.752 512.551,866.538 527.779,913.109C535.247,935.946 544.986,955.332 554.878,964.836Z" style="fill:rgb(224,133,94);stroke:black;stroke-width:14.81px;"/>
                            </g>
                        </g>
                        <path id="head1" serif:id="head" d="M776.02,839.865C843.654,838.074 924.356,877.424 975.853,954.467C1049.7,1064.94 1084.53,1102.88 1084.53,1102.88C1084.53,1102.88 971.717,1273.4 752.347,1266.1C546.845,1259.26 471.269,1103.46 471.269,1103.46C471.269,1103.46 517.9,1052.78 570.208,970.059C622.516,887.339 662.592,842.869 776.02,839.865Z" style="fill:rgb(224,133,94);stroke:black;stroke-width:25px;"/>
                        <g id="eyes">
                            <g transform="matrix(1.30547,0,0,1.30547,345.746,-287.165)">
                                <circle cx="261.541" cy="1030.17" r="25.221"/>
                                <path d="M261.541,1004.95C275.461,1004.95 286.762,1016.25 286.762,1030.17C286.762,1044.09 275.461,1055.39 261.541,1055.39C247.621,1055.39 236.32,1044.09 236.32,1030.17C236.32,1016.25 247.621,1004.95 261.541,1004.95ZM261.541,1014.52C252.906,1014.52 245.895,1021.54 245.895,1030.17C245.895,1038.81 252.906,1045.82 261.541,1045.82C270.176,1045.82 277.187,1038.81 277.187,1030.17C277.187,1021.54 270.176,1014.52 261.541,1014.52Z"/>
                            </g>
                            <g transform="matrix(1.30547,0,0,1.30547,522.01,-287.098)">
                                <circle cx="261.541" cy="1030.17" r="25.221"/>
                                <path d="M261.541,1004.95C275.461,1004.95 286.762,1016.25 286.762,1030.17C286.762,1044.09 275.461,1055.39 261.541,1055.39C247.621,1055.39 236.32,1044.09 236.32,1030.17C236.32,1016.25 247.621,1004.95 261.541,1004.95ZM261.541,1014.52C252.906,1014.52 245.895,1021.54 245.895,1030.17C245.895,1038.81 252.906,1045.82 261.541,1045.82C270.176,1045.82 277.187,1038.81 277.187,1030.17C277.187,1021.54 270.176,1014.52 261.541,1014.52Z"/>
                            </g>
                        </g>
                        <path id="lcheeck" d="M477.153,1103.61C477.153,1103.61 559.565,1091.17 644.313,1131.72C729.06,1172.27 771.297,1256.98 771.297,1256.98C771.297,1256.98 709.064,1280.12 609.719,1233.49C510.374,1186.86 477.153,1103.61 477.153,1103.61" style="fill:rgb(240,240,240);stroke:black;stroke-width:25px;"/>
                        <g id="rcheek" transform="matrix(-1,0,0,1,1552.33,-0.0802777)">
                            <path d="M477.153,1103.61C477.153,1103.61 565.332,1096.48 652.423,1131.72C758.661,1174.7 781.028,1257.06 781.028,1257.06C781.028,1257.06 714.741,1279.31 609.719,1233.49C509.131,1189.6 477.153,1103.61 477.153,1103.61" style="fill:rgb(240,240,240);stroke:black;stroke-width:25px;"/>
                        </g>
                        <g id="nose" transform="matrix(1.05568,0,0,-1.05568,222.145,2572.85)">
                            <path d="M497.394,1258.3C501.828,1253.03 508.391,1250.03 515.277,1250.11C522.163,1250.2 528.647,1253.37 532.945,1258.75C541.812,1269.86 552.678,1283.46 562.143,1295.31C567.129,1301.56 568.516,1309.94 565.804,1317.46C563.093,1324.97 556.673,1330.54 548.848,1332.16C537.037,1334.64 524.649,1336.67 515.743,1336.67C506.139,1336.67 492.521,1334.31 479.953,1331.57C472.467,1329.96 466.275,1324.72 463.44,1317.61C460.606,1310.5 461.501,1302.44 465.828,1296.12C466.505,1295.12 466.902,1294.54 466.902,1294.54C466.902,1294.54 483.588,1274.71 497.394,1258.3Z" style="fill:rgb(90,90,90);stroke:black;stroke-width:23.68px;"/>
                        </g>
                    </g>
                </g>
            </g>
        </g>
    </g>
</svg>
