0
SECTION
2
HEADER
9
$INSUNITS
70
4
0
ENDSEC
0
SECTION
2
TABLES
0
TABLE
2
LTYPE
0
LTYPE
72
65
70
64
2
CONTINUOUS
3
______
73
0
40
0
0
ENDTAB
0
TABLE
2
LAYER
0
ENDTAB
0
ENDSEC
0
SECTION
2
ENTITIES
0
LINE
8
0
10
31.25
20
-2.475
11
44.95
21
-2.475
0
LINE
8
0
10
31.25
20
-16.575
11
44.95
21
-16.575
0
LINE
8
0
10
31.05
20
-2.675
11
31.05
21
-16.375
0
LINE
8
0
10
45.15
20
-2.675
11
45.15
21
-16.375
0
ARC
8
0
10
31.25
20
-2.675
40
0.2
50
90
51
180
0
ARC
8
0
10
44.95
20
-2.675
40
0.2
50
0
51
90
0
ARC
8
0
10
31.25
20
-16.375
40
0.2
50
180
51
270
0
ARC
8
0
10
44.95
20
-16.375
40
0.2
50
270
51
0
0
LINE
8
0
10
116.975
20
-2.475
11
130.675
21
-2.475
0
LINE
8
0
10
116.975
20
-16.575
11
130.675
21
-16.575
0
LINE
8
0
10
116.775
20
-2.675
11
116.775
21
-16.375
0
LINE
8
0
10
130.875
20
-2.675
11
130.875
21
-16.375
0
ARC
8
0
10
116.975
20
-2.675
40
0.2
50
90
51
180
0
ARC
8
0
10
130.675
20
-2.675
40
0.2
50
0
51
90
0
ARC
8
0
10
116.975
20
-16.375
40
0.2
50
180
51
270
0
ARC
8
0
10
130.675
20
-16.375
40
0.2
50
270
51
0
0
LINE
8
0
10
55.0625
20
-7.2375
11
68.7625
21
-7.2375
0
LINE
8
0
10
55.0625
20
-21.3375
11
68.7625
21
-21.3375
0
LINE
8
0
10
54.8625
20
-7.4375
11
54.8625
21
-21.1375
0
LINE
8
0
10
68.9625
20
-7.4375
11
68.9625
21
-21.1375
0
ARC
8
0
10
55.0625
20
-7.4375
40
0.2
50
90
51
180
0
ARC
8
0
10
68.7625
20
-7.4375
40
0.2
50
0
51
90
0
ARC
8
0
10
55.0625
20
-21.1375
40
0.2
50
180
51
270
0
ARC
8
0
10
68.7625
20
-21.1375
40
0.2
50
270
51
0
0
LINE
8
0
10
74.1125
20
-7.2375
11
87.8125
21
-7.2375
0
LINE
8
0
10
74.1125
20
-21.3375
11
87.8125
21
-21.3375
0
LINE
8
0
10
73.9125
20
-7.4375
11
73.9125
21
-21.1375
0
LINE
8
0
10
88.0125
20
-7.4375
11
88.0125
21
-21.1375
0
ARC
8
0
10
74.1125
20
-7.4375
40
0.2
50
90
51
180
0
ARC
8
0
10
87.8125
20
-7.4375
40
0.2
50
0
51
90
0
ARC
8
0
10
74.1125
20
-21.1375
40
0.2
50
180
51
270
0
ARC
8
0
10
87.8125
20
-21.1375
40
0.2
50
270
51
0
0
LINE
8
0
10
93.1625
20
-7.2375
11
106.8625
21
-7.2375
0
LINE
8
0
10
93.1625
20
-21.3375
11
106.8625
21
-21.3375
0
LINE
8
0
10
92.9625
20
-7.4375
11
92.9625
21
-21.1375
0
LINE
8
0
10
107.0625
20
-7.4375
11
107.0625
21
-21.1375
0
ARC
8
0
10
93.1625
20
-7.4375
40
0.2
50
90
51
180
0
ARC
8
0
10
106.8625
20
-7.4375
40
0.2
50
0
51
90
0
ARC
8
0
10
93.1625
20
-21.1375
40
0.2
50
180
51
270
0
ARC
8
0
10
106.8625
20
-21.1375
40
0.2
50
270
51
0
0
LINE
8
0
10
36.0125
20
-26.2875
11
49.7125
21
-26.2875
0
LINE
8
0
10
36.0125
20
-40.3875
11
49.7125
21
-40.3875
0
LINE
8
0
10
35.8125
20
-26.4875
11
35.8125
21
-40.1875
0
LINE
8
0
10
49.9125
20
-26.4875
11
49.9125
21
-40.1875
0
ARC
8
0
10
36.0125
20
-26.4875
40
0.2
50
90
51
180
0
ARC
8
0
10
49.7125
20
-26.4875
40
0.2
50
0
51
90
0
ARC
8
0
10
36.0125
20
-40.1875
40
0.2
50
180
51
270
0
ARC
8
0
10
49.7125
20
-40.1875
40
0.2
50
270
51
0
0
LINE
8
0
10
55.0625
20
-26.2875
11
68.7625
21
-26.2875
0
LINE
8
0
10
55.0625
20
-40.3875
11
68.7625
21
-40.3875
0
LINE
8
0
10
54.8625
20
-26.4875
11
54.8625
21
-40.1875
0
LINE
8
0
10
68.9625
20
-26.4875
11
68.9625
21
-40.1875
0
ARC
8
0
10
55.0625
20
-26.4875
40
0.2
50
90
51
180
0
ARC
8
0
10
68.7625
20
-26.4875
40
0.2
50
0
51
90
0
ARC
8
0
10
55.0625
20
-40.1875
40
0.2
50
180
51
270
0
ARC
8
0
10
68.7625
20
-40.1875
40
0.2
50
270
51
0
0
LINE
8
0
10
74.1125
20
-26.2875
11
87.8125
21
-26.2875
0
LINE
8
0
10
74.1125
20
-40.3875
11
87.8125
21
-40.3875
0
LINE
8
0
10
73.9125
20
-26.4875
11
73.9125
21
-40.1875
0
LINE
8
0
10
88.0125
20
-26.4875
11
88.0125
21
-40.1875
0
ARC
8
0
10
74.1125
20
-26.4875
40
0.2
50
90
51
180
0
ARC
8
0
10
87.8125
20
-26.4875
40
0.2
50
0
51
90
0
ARC
8
0
10
74.1125
20
-40.1875
40
0.2
50
180
51
270
0
ARC
8
0
10
87.8125
20
-40.1875
40
0.2
50
270
51
0
0
LINE
8
0
10
93.1625
20
-26.2875
11
106.8625
21
-26.2875
0
LINE
8
0
10
93.1625
20
-40.3875
11
106.8625
21
-40.3875
0
LINE
8
0
10
92.9625
20
-26.4875
11
92.9625
21
-40.1875
0
LINE
8
0
10
107.0625
20
-26.4875
11
107.0625
21
-40.1875
0
ARC
8
0
10
93.1625
20
-26.4875
40
0.2
50
90
51
180
0
ARC
8
0
10
106.8625
20
-26.4875
40
0.2
50
0
51
90
0
ARC
8
0
10
93.1625
20
-40.1875
40
0.2
50
180
51
270
0
ARC
8
0
10
106.8625
20
-40.1875
40
0.2
50
270
51
0
0
LINE
8
0
10
112.2125
20
-26.2875
11
125.9125
21
-26.2875
0
LINE
8
0
10
112.2125
20
-40.3875
11
125.9125
21
-40.3875
0
LINE
8
0
10
112.0125
20
-26.4875
11
112.0125
21
-40.1875
0
LINE
8
0
10
126.1125
20
-26.4875
11
126.1125
21
-40.1875
0
ARC
8
0
10
112.2125
20
-26.4875
40
0.2
50
90
51
180
0
ARC
8
0
10
125.9125
20
-26.4875
40
0.2
50
0
51
90
0
ARC
8
0
10
112.2125
20
-40.1875
40
0.2
50
180
51
270
0
ARC
8
0
10
125.9125
20
-40.1875
40
0.2
50
270
51
0
0
LINE
8
0
10
71.73125
20
-66.76875
11
85.43125
21
-66.76875
0
LINE
8
0
10
71.73125
20
-80.86875
11
85.43125
21
-80.86875
0
LINE
8
0
10
71.53125
20
-66.96875
11
71.53125
21
-80.66875
0
LINE
8
0
10
85.63125
20
-66.96875
11
85.63125
21
-80.66875
0
ARC
8
0
10
71.73125
20
-66.96875
40
0.2
50
90
51
180
0
ARC
8
0
10
85.43125
20
-66.96875
40
0.2
50
0
51
90
0
ARC
8
0
10
71.73125
20
-80.66875
40
0.2
50
180
51
270
0
ARC
8
0
10
85.43125
20
-80.66875
40
0.2
50
270
51
0
0
LINE
8
0
10
63.29325
20
-67.76875
11
69.99325
21
-67.76875
0
LINE
8
0
10
63.29325
20
-82.86875
11
69.99325
21
-82.86875
0
LINE
8
0
10
63.09325
20
-67.96875
11
63.09325
21
-82.66875
0
LINE
8
0
10
70.19325
20
-67.96875
11
70.19325
21
-82.66875
0
ARC
8
0
10
63.29325
20
-67.96875
40
0.2
50
90
51
180
0
ARC
8
0
10
69.99325
20
-67.96875
40
0.2
50
0
51
90
0
ARC
8
0
10
63.29325
20
-82.66875
40
0.2
50
180
51
270
0
ARC
8
0
10
69.99325
20
-82.66875
40
0.2
50
270
51
0
0
LINE
8
0
10
87.16925
20
-67.76875
11
93.86925
21
-67.76875
0
LINE
8
0
10
87.16925
20
-82.86875
11
93.86925
21
-82.86875
0
LINE
8
0
10
86.96925
20
-67.96875
11
86.96925
21
-82.66875
0
LINE
8
0
10
94.06925
20
-67.96875
11
94.06925
21
-82.66875
0
ARC
8
0
10
87.16925
20
-67.96875
40
0.2
50
90
51
180
0
ARC
8
0
10
93.86925
20
-67.96875
40
0.2
50
0
51
90
0
ARC
8
0
10
87.16925
20
-82.66875
40
0.2
50
180
51
270
0
ARC
8
0
10
93.86925
20
-82.66875
40
0.2
50
270
51
0
0
LINE
8
0
10
59.48125
20
-66.76875
11
61.18125
21
-66.76875
0
LINE
8
0
10
59.48125
20
-80.86875
11
61.18125
21
-80.86875
0
LINE
8
0
10
59.28125
20
-66.96875
11
59.28125
21
-80.66875
0
LINE
8
0
10
61.38125
20
-66.96875
11
61.38125
21
-80.66875
0
ARC
8
0
10
59.48125
20
-66.96875
40
0.2
50
90
51
180
0
ARC
8
0
10
61.18125
20
-66.96875
40
0.2
50
0
51
90
0
ARC
8
0
10
59.48125
20
-80.66875
40
0.2
50
180
51
270
0
ARC
8
0
10
61.18125
20
-80.66875
40
0.2
50
270
51
0
0
LINE
8
0
10
95.98125
20
-66.76875
11
97.68125
21
-66.76875
0
LINE
8
0
10
95.98125
20
-80.86875
11
97.68125
21
-80.86875
0
LINE
8
0
10
95.78125
20
-66.96875
11
95.78125
21
-80.66875
0
LINE
8
0
10
97.88125
20
-66.96875
11
97.88125
21
-80.66875
0
ARC
8
0
10
95.98125
20
-66.96875
40
0.2
50
90
51
180
0
ARC
8
0
10
97.68125
20
-66.96875
40
0.2
50
0
51
90
0
ARC
8
0
10
95.98125
20
-80.66875
40
0.2
50
180
51
270
0
ARC
8
0
10
97.68125
20
-80.66875
40
0.2
50
270
51
0
0
LINE
8
0
10
2.675
20
-107.25
11
16.375
21
-107.25
0
LINE
8
0
10
2.675
20
-121.35
11
16.375
21
-121.35
0
LINE
8
0
10
2.475
20
-107.45
11
2.475
21
-121.15
0
LINE
8
0
10
16.575
20
-107.45
11
16.575
21
-121.15
0
ARC
8
0
10
2.675
20
-107.45
40
0.2
50
90
51
180
0
ARC
8
0
10
16.375
20
-107.45
40
0.2
50
0
51
90
0
ARC
8
0
10
2.675
20
-121.15
40
0.2
50
180
51
270
0
ARC
8
0
10
16.375
20
-121.15
40
0.2
50
270
51
0
0
LINE
8
0
10
26.4875
20
-107.25
11
40.1875
21
-107.25
0
LINE
8
0
10
26.4875
20
-121.35
11
40.1875
21
-121.35
0
LINE
8
0
10
26.2875
20
-107.45
11
26.2875
21
-121.15
0
LINE
8
0
10
40.3875
20
-107.45
11
40.3875
21
-121.15
0
ARC
8
0
10
26.4875
20
-107.45
40
0.2
50
90
51
180
0
ARC
8
0
10
40.1875
20
-107.45
40
0.2
50
0
51
90
0
ARC
8
0
10
26.4875
20
-121.15
40
0.2
50
180
51
270
0
ARC
8
0
10
40.1875
20
-121.15
40
0.2
50
270
51
0
0
LINE
8
0
10
57.44375
20
-107.25
11
71.14375
21
-107.25
0
LINE
8
0
10
57.44375
20
-121.35
11
71.14375
21
-121.35
0
LINE
8
0
10
57.24375
20
-107.45
11
57.24375
21
-121.15
0
LINE
8
0
10
71.34375
20
-107.45
11
71.34375
21
-121.15
0
ARC
8
0
10
57.44375
20
-107.45
40
0.2
50
90
51
180
0
ARC
8
0
10
71.14375
20
-107.45
40
0.2
50
0
51
90
0
ARC
8
0
10
57.44375
20
-121.15
40
0.2
50
180
51
270
0
ARC
8
0
10
71.14375
20
-121.15
40
0.2
50
270
51
0
0
LINE
8
0
10
49.00575
20
-108.25
11
55.70575
21
-108.25
0
LINE
8
0
10
49.00575
20
-123.35
11
55.70575
21
-123.35
0
LINE
8
0
10
48.80575
20
-108.45
11
48.80575
21
-123.15
0
LINE
8
0
10
55.90575
20
-108.45
11
55.90575
21
-123.15
0
ARC
8
0
10
49.00575
20
-108.45
40
0.2
50
90
51
180
0
ARC
8
0
10
55.70575
20
-108.45
40
0.2
50
0
51
90
0
ARC
8
0
10
49.00575
20
-123.15
40
0.2
50
180
51
270
0
ARC
8
0
10
55.70575
20
-123.15
40
0.2
50
270
51
0
0
LINE
8
0
10
72.88175
20
-108.25
11
79.58175
21
-108.25
0
LINE
8
0
10
72.88175
20
-123.35
11
79.58175
21
-123.35
0
LINE
8
0
10
72.68175
20
-108.45
11
72.68175
21
-123.15
0
LINE
8
0
10
79.78175
20
-108.45
11
79.78175
21
-123.15
0
ARC
8
0
10
72.88175
20
-108.45
40
0.2
50
90
51
180
0
ARC
8
0
10
79.58175
20
-108.45
40
0.2
50
0
51
90
0
ARC
8
0
10
72.88175
20
-123.15
40
0.2
50
180
51
270
0
ARC
8
0
10
79.58175
20
-123.15
40
0.2
50
270
51
0
0
LINE
8
0
10
45.19375
20
-107.25
11
46.89375
21
-107.25
0
LINE
8
0
10
45.19375
20
-121.35
11
46.89375
21
-121.35
0
LINE
8
0
10
44.99375
20
-107.45
11
44.99375
21
-121.15
0
LINE
8
0
10
47.09375
20
-107.45
11
47.09375
21
-121.15
0
ARC
8
0
10
45.19375
20
-107.45
40
0.2
50
90
51
180
0
ARC
8
0
10
46.89375
20
-107.45
40
0.2
50
0
51
90
0
ARC
8
0
10
45.19375
20
-121.15
40
0.2
50
180
51
270
0
ARC
8
0
10
46.89375
20
-121.15
40
0.2
50
270
51
0
0
LINE
8
0
10
81.69375
20
-107.25
11
83.39375
21
-107.25
0
LINE
8
0
10
81.69375
20
-121.35
11
83.39375
21
-121.35
0
LINE
8
0
10
81.49375
20
-107.45
11
81.49375
21
-121.15
0
LINE
8
0
10
83.59375
20
-107.45
11
83.59375
21
-121.15
0
ARC
8
0
10
81.69375
20
-107.45
40
0.2
50
90
51
180
0
ARC
8
0
10
83.39375
20
-107.45
40
0.2
50
0
51
90
0
ARC
8
0
10
81.69375
20
-121.15
40
0.2
50
180
51
270
0
ARC
8
0
10
83.39375
20
-121.15
40
0.2
50
270
51
0
0
LINE
8
0
10
88.4
20
-107.25
11
102.1
21
-107.25
0
LINE
8
0
10
88.4
20
-121.35
11
102.1
21
-121.35
0
LINE
8
0
10
88.2
20
-107.45
11
88.2
21
-121.15
0
LINE
8
0
10
102.3
20
-107.45
11
102.3
21
-121.15
0
ARC
8
0
10
88.4
20
-107.45
40
0.2
50
90
51
180
0
ARC
8
0
10
102.1
20
-107.45
40
0.2
50
0
51
90
0
ARC
8
0
10
88.4
20
-121.15
40
0.2
50
180
51
270
0
ARC
8
0
10
102.1
20
-121.15
40
0.2
50
270
51
0
0
LINE
8
0
10
112.2125
20
-107.25
11
125.9125
21
-107.25
0
LINE
8
0
10
112.2125
20
-121.35
11
125.9125
21
-121.35
0
LINE
8
0
10
112.0125
20
-107.45
11
112.0125
21
-121.15
0
LINE
8
0
10
126.1125
20
-107.45
11
126.1125
21
-121.15
0
ARC
8
0
10
112.2125
20
-107.45
40
0.2
50
90
51
180
0
ARC
8
0
10
125.9125
20
-107.45
40
0.2
50
0
51
90
0
ARC
8
0
10
112.2125
20
-121.15
40
0.2
50
180
51
270
0
ARC
8
0
10
125.9125
20
-121.15
40
0.2
50
270
51
0
0
LINE
8
0
10
0
20
-123.825
11
133.35
21
-123.825
0
LINE
8
0
10
0
20
0
11
133.35
21
0
0
LINE
8
0
10
0
20
-123.825
11
0
21
0
0
LINE
8
0
10
133.35
20
-123.825
11
133.35
21
0
0
ENDSEC
0
EOF